<?xml version="1.0" encoding="UTF-8"?>
<svg width="348px" height="300px" viewBox="0 0 348 300" version="1.1" xmlns="http://www.w3.org/2000/svg" xmlns:xlink="http://www.w3.org/1999/xlink">
    <title>Nederlands_verkeersbord_J6</title>
    <g id="Page-1" stroke="none" stroke-width="1" fill="none" fill-rule="evenodd">
        <g id="Nederlands_verkeersbord_J6" fill-rule="nonzero">
            <path d="M10,300 C10,300 26.820331,300 10,300 C-4.9165388,300 2.7804912,283.85305 2.7804912,283.85305 L163.90679,8.074496 C163.90679,8.074496 160.40064,14.190767 163.90679,8.074496 C170.16011,-2.85324 178.31089,-2.372093 184.11873,7.601505 L345.21203,283.85305 C345.21203,283.85305 352.91732,300 338,300 C321.17219,300 338,300 338,300 L10,300" id="rode_driehoek" fill="#C1121C"></path>
            <polyline id="witte_driehoek" fill="#F7FBF5" points="174.483 73.698 282.20852 259.57553 65.297261 259.57553 174.483 73.698 174.483 171.01397"></polyline>
            <polyline id="zwart_symbool" fill="#2A2D2F" points="225.75519 171.01397 276.75994 256.60374 71.384424 256.60374 225.75519 171.01397"></polyline>
            <g id="tekst_10_procent" transform="translate(153.000000, 130.000000)">
                <path d="M3.84451,35.7154 C8.01269,33.74875 14.21153,37.14569 17.77956,43.30568 C21.31471,49.49005 20.79677,56.09701 16.65325,58.07179 C12.50974,60.03843 6.27801,56.6415 2.75108,50.4815 C-0.78406,44.289 -0.29901,37.68205 3.84451,35.7154" id="Path" fill="#F7FBF5"></path>
                <polyline id="Path" fill="#2A2D2F" points="44.91797 2.25802 49.53832 0.51079 47.45012 49.27063 42.98597 51.68425 44.91797 2.25802"></polyline>
                <path d="M28.37678,11.61991 C32.06813,9.30382 37.43662,11.30297 40.35517,16.1302 C43.27371,20.95742 42.63247,26.73546 38.9411,29.08406 C35.24975,31.40015 29.88949,29.401 26.96272,24.57377 C24.04417,19.74655 24.68543,13.96851 28.37678,11.61991" id="Path" fill="#2A2D2F"></path>
                <path d="M30.91715,15.11437 C32.80805,14.19606 35.70194,15.78075 37.33796,18.64133 C38.9411,21.46127 38.71914,24.50876 36.82003,25.42707 C34.89625,26.35351 32.00236,24.76069 30.39922,21.94074 C28.76318,19.08017 28.98515,16.03268 30.91715,15.11437" id="Path" fill="#F7FBF5"></path>
                <path d="M53.87915,23.14349 C57.57051,20.82739 62.93077,22.82655 65.85754,27.65377 C68.7432,32.481 68.13484,38.25904 64.41061,40.60764 C60.71925,42.92373 55.35076,40.92457 52.4651,36.09735 C49.53832,31.27013 50.17958,25.49209 53.87915,23.14349" id="Path" fill="#2A2D2F"></path>
                <path d="M56.37842,26.63794 C58.31042,25.71963 61.1632,27.30433 62.79923,30.15678 C64.44348,32.98485 64.2133,36.03234 62.28951,36.95065 C60.36574,37.87708 57.50474,36.28426 55.86871,33.46432 C54.22445,30.60374 54.45464,27.55625 56.37842,26.63794" id="Path" fill="#F7FBF5"></path>
            </g>
        </g>
    </g>
</svg>